<mxfile host="app.diagrams.net" modified="2024-06-10T05:08:30.152Z" agent="Mozilla/5.0 (Macintosh; Intel Mac OS X 10.15; rv:126.0) Gecko/20100101 Firefox/126.0" version="24.5.2" etag="5mdmxbk-NO-A1lr1Y4fS" type="github">
  <diagram name="Page-1" id="bR-gLs9Rha2QtDb0moW6">
    <mxGraphModel>
      <root>
        <mxCell id="0" />
        <mxCell id="1" parent="0" />
        <mxCell id="2" value="Start" style="whiteSpace=wrap;strokeWidth=2;" vertex="1" parent="1">
          <mxGeometry y="174" width="54" height="35" as="geometry" />
        </mxCell>
        <mxCell id="3" value="Sequence Controller" style="rounded=1;absoluteArcSize=1;arcSize=14;whiteSpace=wrap;strokeWidth=2;" vertex="1" parent="1">
          <mxGeometry x="104" y="174" width="164" height="35" as="geometry" />
        </mxCell>
        <mxCell id="4" value="Requirements" style="rhombus;strokeWidth=2;whiteSpace=wrap;" vertex="1" parent="1">
          <mxGeometry x="319" y="115" width="152" height="152" as="geometry" />
        </mxCell>
        <mxCell id="5" value="Design" style="whiteSpace=wrap;strokeWidth=2;" vertex="1" parent="1">
          <mxGeometry x="592" y="89" width="65" height="35" as="geometry" />
        </mxCell>
        <mxCell id="6" value="Re-evaluate" style="rounded=1;absoluteArcSize=1;arcSize=14;whiteSpace=wrap;strokeWidth=2;" vertex="1" parent="1">
          <mxGeometry x="572" y="174" width="104" height="35" as="geometry" />
        </mxCell>
        <mxCell id="7" value="Implementation" style="whiteSpace=wrap;strokeWidth=2;" vertex="1" parent="1">
          <mxGeometry x="726" y="89" width="133" height="35" as="geometry" />
        </mxCell>
        <mxCell id="8" value="Test" style="whiteSpace=wrap;strokeWidth=2;" vertex="1" parent="1">
          <mxGeometry x="909" y="89" width="48" height="35" as="geometry" />
        </mxCell>
        <mxCell id="9" value="Deploy" style="rhombus;strokeWidth=2;whiteSpace=wrap;" vertex="1" parent="1">
          <mxGeometry x="1041" y="3" width="103" height="103" as="geometry" />
        </mxCell>
        <mxCell id="10" value="Refactor" style="rounded=1;absoluteArcSize=1;arcSize=14;whiteSpace=wrap;strokeWidth=2;" vertex="1" parent="1">
          <mxGeometry x="1052" y="156" width="80" height="35" as="geometry" />
        </mxCell>
        <mxCell id="11" value="Monitor" style="rhombus;strokeWidth=2;whiteSpace=wrap;" vertex="1" parent="1">
          <mxGeometry x="1193" width="108" height="108" as="geometry" />
        </mxCell>
        <mxCell id="12" value="Resolve Issues" style="rounded=1;absoluteArcSize=1;arcSize=14;whiteSpace=wrap;strokeWidth=2;" vertex="1" parent="1">
          <mxGeometry x="1421" y="25" width="119" height="35" as="geometry" />
        </mxCell>
        <mxCell id="13" value="Done" style="rounded=1;absoluteArcSize=1;arcSize=14;whiteSpace=wrap;strokeWidth=2;" vertex="1" parent="1">
          <mxGeometry x="1453" y="110" width="55" height="35" as="geometry" />
        </mxCell>
        <mxCell id="14" value="" style="curved=1;startArrow=none;endArrow=block;exitX=1.0003086372658059;exitY=0.48892860412597655;entryX=0.00010162446557021723;entryY=0.48892860412597655;" edge="1" parent="1" source="2" target="3">
          <mxGeometry relative="1" as="geometry">
            <Array as="points" />
          </mxGeometry>
        </mxCell>
        <mxCell id="15" value="" style="curved=1;startArrow=none;endArrow=block;exitX=1.003048803748154;exitY=0.48892860412597655;entryX=-0.0032894485875179895;entryY=0.5007401391079551;" edge="1" parent="1" source="3" target="4">
          <mxGeometry relative="1" as="geometry">
            <Array as="points" />
          </mxGeometry>
        </mxCell>
        <mxCell id="16" value="Valid" style="curved=1;startArrow=none;endArrow=block;exitX=0.9978069757160387;exitY=0.16546354777794947;entryX=-0.004615431565504808;entryY=0.48892860412597655;" edge="1" parent="1" source="4" target="5">
          <mxGeometry relative="1" as="geometry">
            <Array as="points">
              <mxPoint x="521" y="106" />
            </Array>
          </mxGeometry>
        </mxCell>
        <mxCell id="17" value="Invalid" style="curved=1;startArrow=none;endArrow=block;exitX=0.9978069757160387;exitY=0.5007401391079551;entryX=0.0028845713688777043;entryY=0.48892860412597655;" edge="1" parent="1" source="4" target="6">
          <mxGeometry relative="1" as="geometry">
            <Array as="points" />
          </mxGeometry>
        </mxCell>
        <mxCell id="18" value="" style="curved=1;startArrow=none;endArrow=block;exitX=1.001281973031851;exitY=0.48892860412597655;entryX=0.0036340584432272087;entryY=0.48892860412597655;" edge="1" parent="1" source="5" target="7">
          <mxGeometry relative="1" as="geometry">
            <Array as="points" />
          </mxGeometry>
        </mxCell>
        <mxCell id="19" value="" style="curved=1;startArrow=none;endArrow=block;exitX=1.0026315674745947;exitY=0.48892860412597655;entryX=0.007291634877522786;entryY=0.48892860412597655;" edge="1" parent="1" source="7" target="8">
          <mxGeometry relative="1" as="geometry">
            <Array as="points" />
          </mxGeometry>
        </mxCell>
        <mxCell id="20" value="Pass" style="curved=1;startArrow=none;endArrow=block;exitX=0.9673746764902873;exitY=-0.011071395874023438;entryX=-0.0022654116732402914;entryY=0.4970873860479559;" edge="1" parent="1" source="8" target="9">
          <mxGeometry relative="1" as="geometry">
            <Array as="points">
              <mxPoint x="999" y="54" />
            </Array>
          </mxGeometry>
        </mxCell>
        <mxCell id="21" value="Fail" style="curved=1;startArrow=none;endArrow=block;exitX=1.0045138200124104;exitY=0.7751139418959838;entryX=0.002604103088378906;entryY=0.004028138138396083;" edge="1" parent="1" source="8" target="10">
          <mxGeometry relative="1" as="geometry">
            <Array as="points">
              <mxPoint x="999" y="134" />
            </Array>
          </mxGeometry>
        </mxCell>
        <mxCell id="22" value="" style="curved=1;startArrow=none;endArrow=block;exitX=0.002604103088378906;exitY=0.6700253694371416;entryX=0.7983631287181296;entryY=0.9889286041259766;" edge="1" parent="1" source="10" target="8">
          <mxGeometry relative="1" as="geometry">
            <Array as="points">
              <mxPoint x="999" y="188" />
            </Array>
          </mxGeometry>
        </mxCell>
        <mxCell id="23" value="" style="curved=1;startArrow=none;endArrow=block;exitX=0.9943365448886908;exitY=0.4970873860479559;entryX=0.0038580011438440393;entryY=0.5018518589161061;" edge="1" parent="1" source="9" target="11">
          <mxGeometry relative="1" as="geometry">
            <Array as="points" />
          </mxGeometry>
        </mxCell>
        <mxCell id="24" value="Issues" style="curved=1;startArrow=none;endArrow=block;exitX=1.0075617189760562;exitY=0.4356444901102188;entryX=-0.001540624794839811;entryY=0.4498338031336916;" edge="1" parent="1" source="11" target="12">
          <mxGeometry relative="1" as="geometry">
            <Array as="points">
              <mxPoint x="1361" y="39" />
            </Array>
          </mxGeometry>
        </mxCell>
        <mxCell id="25" value="" style="curved=1;startArrow=none;endArrow=block;exitX=-0.001540624794839811;exitY=0.8782851518824084;entryX=1.0075617189760562;entryY=0.5680592277219932;" edge="1" parent="1" source="12" target="11">
          <mxGeometry relative="1" as="geometry">
            <Array as="points">
              <mxPoint x="1361" y="69" />
            </Array>
          </mxGeometry>
        </mxCell>
        <mxCell id="26" value="No Issues" style="curved=1;startArrow=none;endArrow=block;exitX=1.0075617189760562;exitY=0.8244472617390511;entryX=-0.002878813310102983;entryY=0.4939285823277065;" edge="1" parent="1" source="11" target="13">
          <mxGeometry relative="1" as="geometry">
            <Array as="points">
              <mxPoint x="1361" y="127" />
            </Array>
          </mxGeometry>
        </mxCell>
      </root>
    </mxGraphModel>
  </diagram>
</mxfile>
